<mxfile host="app.diagrams.net" modified="2023-05-30T12:03:12.181Z" agent="Mozilla/5.0 (Windows NT 10.0; Win64; x64; rv:109.0) Gecko/20100101 Firefox/113.0" etag="yiWnprPZ6A8pMag4ePmM" version="21.3.5" type="github">
  <diagram name="Page-1" id="TnmgqIniQ54H9pBc9zpU">
    <mxGraphModel dx="1128" dy="816" grid="1" gridSize="10" guides="1" tooltips="1" connect="1" arrows="1" fold="1" page="1" pageScale="1" pageWidth="3300" pageHeight="4681" math="0" shadow="0">
      <root>
        <mxCell id="0" />
        <mxCell id="1" parent="0" />
        <mxCell id="CdzVFCnlMq9QXRfCIlLg-2" value="Actor" style="shape=umlActor;verticalLabelPosition=bottom;verticalAlign=top;html=1;outlineConnect=0;" vertex="1" parent="1">
          <mxGeometry x="410" y="450" width="30" height="60" as="geometry" />
        </mxCell>
        <mxCell id="CdzVFCnlMq9QXRfCIlLg-3" value="" style="ellipse;whiteSpace=wrap;html=1;" vertex="1" parent="1">
          <mxGeometry x="610" y="160" width="120" height="80" as="geometry" />
        </mxCell>
        <mxCell id="CdzVFCnlMq9QXRfCIlLg-4" value="" style="ellipse;whiteSpace=wrap;html=1;" vertex="1" parent="1">
          <mxGeometry x="610" y="280" width="120" height="80" as="geometry" />
        </mxCell>
        <mxCell id="CdzVFCnlMq9QXRfCIlLg-5" value="" style="ellipse;whiteSpace=wrap;html=1;" vertex="1" parent="1">
          <mxGeometry x="610" y="390" width="120" height="80" as="geometry" />
        </mxCell>
        <mxCell id="CdzVFCnlMq9QXRfCIlLg-6" value="" style="ellipse;whiteSpace=wrap;html=1;" vertex="1" parent="1">
          <mxGeometry x="610" y="500" width="120" height="80" as="geometry" />
        </mxCell>
        <mxCell id="CdzVFCnlMq9QXRfCIlLg-7" value="" style="ellipse;whiteSpace=wrap;html=1;" vertex="1" parent="1">
          <mxGeometry x="610" y="720" width="120" height="80" as="geometry" />
        </mxCell>
        <mxCell id="CdzVFCnlMq9QXRfCIlLg-8" value="" style="ellipse;whiteSpace=wrap;html=1;" vertex="1" parent="1">
          <mxGeometry x="610" y="610" width="120" height="80" as="geometry" />
        </mxCell>
      </root>
    </mxGraphModel>
  </diagram>
</mxfile>
